<?xml version="1.0" encoding="UTF-8" standalone="no"?>
<!-- Generator: Adobe Illustrator 19.0.0, SVG Export Plug-In . SVG Version: 6.00 Build 0)  -->

<svg
   xmlns:dc="http://purl.org/dc/elements/1.1/"
   xmlns:cc="http://creativecommons.org/ns#"
   xmlns:rdf="http://www.w3.org/1999/02/22-rdf-syntax-ns#"
   xmlns:svg="http://www.w3.org/2000/svg"
   xmlns="http://www.w3.org/2000/svg"
   xmlns:sodipodi="http://sodipodi.sourceforge.net/DTD/sodipodi-0.dtd"
   xmlns:inkscape="http://www.inkscape.org/namespaces/inkscape"
   version="1.1"
   id="Layer_1"
   x="0px"
   y="0px"
   viewBox="0 0 512 512"
   style="enable-background:new 0 0 512 512;"
   xml:space="preserve"
   sodipodi:docname="02_10.svg"
   inkscape:version="0.92.4 (5da689c313, 2019-01-14)"><metadata
   id="metadata43"><rdf:RDF><cc:Work
       rdf:about=""><dc:format>image/svg+xml</dc:format><dc:type
         rdf:resource="http://purl.org/dc/dcmitype/StillImage" /><dc:title></dc:title></cc:Work></rdf:RDF></metadata><defs
   id="defs41" /><sodipodi:namedview
   pagecolor="#ffffff"
   bordercolor="#666666"
   borderopacity="1"
   objecttolerance="10"
   gridtolerance="10"
   guidetolerance="10"
   inkscape:pageopacity="0"
   inkscape:pageshadow="2"
   inkscape:window-width="1920"
   inkscape:window-height="1017"
   id="namedview39"
   showgrid="false"
   inkscape:zoom="0.921875"
   inkscape:cx="76.497817"
   inkscape:cy="339.68962"
   inkscape:window-x="-8"
   inkscape:window-y="0"
   inkscape:window-maximized="1"
   inkscape:current-layer="g4" />
<g
   id="g6">
	<g
   id="g4"
   style="fill:#000000;fill-opacity:1">
		<path
   d="M 256,0 C 115.03,0 0,115.05 0,256 0,396.97 115.05,512 256,512 396.97,512 512,396.95 512,256 512,115.03 396.95,0 256,0 Z"
   id="path2"
   inkscape:connector-curvature="0"
   style="fill:#9dc6e0;fill-opacity:1;stroke:none;stroke-opacity:1"
   sodipodi:nodetypes="sssss" /><path
   d="M 258,80.822272 C 161.53592,80.822272 82.822284,159.5496 82.822284,256 82.822284,352.46408 161.54961,431.17773 258,431.17773 354.46408,431.17773 433.17773,352.4504 433.17773,256 433.17773,159.53592 354.4504,80.822272 258,80.822272 Z"
   id="path2-3-8-7"
   inkscape:connector-curvature="0"
   style="fill:#215a8f;fill-opacity:1;stroke-width:0.68428802"
   sodipodi:nodetypes="sssss" /><path
   d="m 258,123.2896 c -73.07885,0 -132.71039,59.64192 -132.71039,132.7104 0,73.07885 59.64191,132.7104 132.71039,132.7104 73.07885,0 132.7104,-59.64192 132.7104,-132.7104 0,-73.07885 -59.64192,-132.7104 -132.7104,-132.7104 z"
   id="path2-3-8"
   inkscape:connector-curvature="0"
   style="fill:none;fill-opacity:1;stroke-width:0.51840001"
   sodipodi:nodetypes="sssss" />
	<path
   d="m 256,179.2 c -42.291,0 -76.79999,34.515 -76.79999,76.8 0,42.291 34.51499,76.8 76.79999,76.8 42.291,0 76.8,-34.515 76.8,-76.8 0,-42.291 -34.515,-76.8 -76.8,-76.8 z"
   id="path2-3"
   inkscape:connector-curvature="0"
   style="fill:#ffffff;fill-opacity:1;stroke-width:0.30000001"
   sodipodi:nodetypes="sssss" /></g>
</g>
<g
   id="g8">
</g>
<g
   id="g10">
</g>
<g
   id="g12">
</g>
<g
   id="g14">
</g>
<g
   id="g16">
</g>
<g
   id="g18">
</g>
<g
   id="g20">
</g>
<g
   id="g22">
</g>
<g
   id="g24">
</g>
<g
   id="g26">
</g>
<g
   id="g28">
</g>
<g
   id="g30">
</g>
<g
   id="g32">
</g>
<g
   id="g34">
</g>
<g
   id="g36">
</g>
</svg>