<?xml version="1.0" encoding="UTF-8" standalone="no"?>
<!-- Generator: Adobe Illustrator 16.0.0, SVG Export Plug-In . SVG Version: 6.00 Build 0)  -->

<svg
   xmlns:dc="http://purl.org/dc/elements/1.1/"
   xmlns:cc="http://creativecommons.org/ns#"
   xmlns:rdf="http://www.w3.org/1999/02/22-rdf-syntax-ns#"
   xmlns:svg="http://www.w3.org/2000/svg"
   xmlns="http://www.w3.org/2000/svg"
   xmlns:sodipodi="http://sodipodi.sourceforge.net/DTD/sodipodi-0.dtd"
   xmlns:inkscape="http://www.inkscape.org/namespaces/inkscape"
   version="1.1"
   id="Capa_1"
   x="0px"
   y="0px"
   width="106.048px"
   height="106.048px"
   viewBox="0 0 106.048 106.048"
   style="enable-background:new 0 0 106.048 106.048;"
   xml:space="preserve"
   sodipodi:docname="secondaryIcon.svg"
   inkscape:version="0.92.4 (5da689c313, 2019-01-14)"><metadata
   id="metadata41"><rdf:RDF><cc:Work
       rdf:about=""><dc:format>image/svg+xml</dc:format><dc:type
         rdf:resource="http://purl.org/dc/dcmitype/StillImage" /><dc:title></dc:title></cc:Work></rdf:RDF></metadata><defs
   id="defs39" /><sodipodi:namedview
   pagecolor="#ffffff"
   bordercolor="#666666"
   borderopacity="1"
   objecttolerance="10"
   gridtolerance="10"
   guidetolerance="10"
   inkscape:pageopacity="0"
   inkscape:pageshadow="2"
   inkscape:window-width="1920"
   inkscape:window-height="1017"
   id="namedview37"
   showgrid="false"
   inkscape:zoom="6.2944027"
   inkscape:cx="21.074829"
   inkscape:cy="41.976562"
   inkscape:window-x="-8"
   inkscape:window-y="0"
   inkscape:window-maximized="1"
   inkscape:current-layer="Capa_1" />
<g
   id="g4"
   style="fill:#db2518;fill-opacity:1">
	<path
   style="fill:#db2518;fill-opacity:1"
   d="M72.483,47.545c4.525,0,8.627,1.067,11.666,2.822v37.531c-15.374-9.678-28.697-0.808-28.697,0.709   V56.369C55.452,50.631,63.08,47.545,72.483,47.545z M33.782,47.545c-4.528,0-8.627,1.067-11.672,2.822v37.531   c15.387-9.678,28.708-0.808,28.708,0.709V56.369C50.818,50.631,43.193,47.545,33.782,47.545z M106.048,21.209v63.629   c0,11.666-9.543,21.21-21.21,21.21H21.209C9.543,106.048,0,96.504,0,84.838V21.209C0,9.543,9.543,0,21.209,0h63.628   C96.505,0,106.048,9.543,106.048,21.209z M87.489,47.095c-17.968-7.91-32.312,0.461-34.124,2.133   c-2.39-2.281-16.078-10.204-34.807-2.133c0,0.129,0,2.361,0,5.781v38.497h28.384c0.971,0.828,3.282,1.424,5.991,1.424   c2.721,0,5.03-0.596,6.009-1.424h28.547V52.876C87.489,49.456,87.489,47.224,87.489,47.095z M92.792,33.044L53.076,13.297   l-0.016-0.041l-0.037,0.021l-0.036-0.021l-0.015,0.046L13.256,33.044l3.309,6.659L53.023,21.58l36.46,18.124L92.792,33.044z"
   id="path2" />
</g>
<g
   id="g6">
</g>
<g
   id="g8">
</g>
<g
   id="g10">
</g>
<g
   id="g12">
</g>
<g
   id="g14">
</g>
<g
   id="g16">
</g>
<g
   id="g18">
</g>
<g
   id="g20">
</g>
<g
   id="g22">
</g>
<g
   id="g24">
</g>
<g
   id="g26">
</g>
<g
   id="g28">
</g>
<g
   id="g30">
</g>
<g
   id="g32">
</g>
<g
   id="g34">
</g>
<text
   xml:space="preserve"
   style="font-style:normal;font-weight:normal;font-size:40px;line-height:1.25;font-family:sans-serif;letter-spacing:0px;word-spacing:0px;fill:#ffffff;fill-opacity:0.94117647;stroke:none"
   x="58.07412"
   y="81.506668"
   id="text1503-2"><tspan
     sodipodi:role="line"
     id="tspan1501-3"
     x="58.07412"
     y="81.506668">S</tspan></text>
</svg>